# xmcd
#
# Track frame offsets: 
#        150
#        22000
#        50867
#        73730
#        92875
#        114130
#        139267
#        164822
#        185602
#        204710
#        233982
#        277270
#        294257
#
# Disc length: 4227 seconds
#
# Revision: 22
# Processed by: cddbd v1.5.2PL0 Copyright (c) Steve Scherf et al.
# Submitted via: ExactAudioCopyFreeDBPlugin 1.0
#
DISCID=d310810d
DTITLE=Stevie Ray Vaughan - Live Alive
DYEAR=1986
DGENRE=Blues
TTITLE0=Say What!
TTITLE1=Ain't Gone 'n' Give Up on Love
TTITLE2=Pride and Joy
TTITLE3=Mary Had a Little Lamb
TTITLE4=Superstition
TTITLE5=I'm Leaving You (Commit a Crime)
TTITLE6=Cold Shot
TTITLE7=Willie the Wimp
TTITLE8=Look at Little Sister
TTITLE9=Texas Flood
TTITLE10=Voodoo Chile (Slight Return)
TTITLE11=Love Struck Baby
TTITLE12=Change It
EXTD=Recorded live at the Montreux Jazz Festival, Montreux CH-VD, 1985
EXTD=07-16 - Austin Opera House, Austin US-TX, 1986-07-17/18 - and Dall
EXTD=as Starfest, Dallas US-TX, 1986-07-19.\nStevie Ray Vaughan (1954-
EXTD=10-03/1990-08-27): guitar, vocals\nTommy Shannon: bass guitar\nCh
EXTD=ris "Whipper" Layton: drums\nReese Wynans: keyboards\nJimmie Vaug
EXTD=han (1986-07-17: 8,9,12,13): guitar, 6-string bass\nThe 1986 2-LP
EXTD=Epic 4502381 vinyl release included a 14th track, "Life Without 
EXTD=You".\nCD: Epic EGK 40511 (1986-07, 1990-10-25), UPC 074644051124
EXTD=YEAR: 1986
EXTT0=
EXTT1=
EXTT2=
EXTT3=
EXTT4=
EXTT5=
EXTT6=
EXTT7=
EXTT8=
EXTT9=
EXTT10=
EXTT11=
EXTT12=
PLAYORDER=
